<svg t="1632298237763" class="icon" viewBox="0 0 1024 1024" version="1.1" xmlns="http://www.w3.org/2000/svg" p-id="3882" width="200" height="200"><path d="M711.456 377.184c32.736 31.52 60.928 72.256 84.64 122.208a40.64 40.64 0 0 1 0 34.72c-63.776 135.04-160.48 202.528-290.112 202.528-46.752 0-89.248-8.832-127.456-26.464l37.184-37.184c27.52 10.048 57.6 15.104 90.272 15.104 108.864 0 188.48-55.168 244.608-171.296-21.088-43.584-45.44-78.56-73.44-105.28l34.304-34.336z m13.024-122.816l28.768 28.8a5.376 5.376 0 0 1 0 7.616L272.96 771.04a5.408 5.408 0 0 1-7.648 0l-28.8-28.8a5.376 5.376 0 0 1 0-7.616l71.36-71.36c-35.84-32.384-66.56-75.392-92.032-129.088a40.64 40.64 0 0 1 0-34.72C279.68 364.48 376.384 296.96 505.984 296.96c50.752 0 96.448 10.4 137.12 31.168l73.76-73.728a5.376 5.376 0 0 1 7.616 0z m-218.496 91.136c-108.8 0-188.416 55.168-244.608 171.296 22.944 47.36 49.792 84.608 80.928 112.096l56.256-56.256a118.688 118.688 0 0 1 160.576-160.576l47.424-47.424c-30.336-12.832-63.776-19.136-100.576-19.136z m-70.016 137.088a75.616 75.616 0 0 0-4.64 57.28l95.04-95.04a75.616 75.616 0 0 0-90.4 37.76z m60.416 109.504a75.456 75.456 0 0 0 82.144-82.112l35.616-35.616a118.72 118.72 0 0 1-153.376 153.344l35.616-35.616z" p-id="3883"></path></svg>