<svg t="1632301515040" class="icon" viewBox="0 0 1024 1024" version="1.1" xmlns="http://www.w3.org/2000/svg" p-id="5015" width="200" height="200"><path d="M512 288c-209.44 0-288 224-288 224s78.56 224 288 224c209.472 0 288-224 288-224s-78.528-224-288-224z m0 56c138.144 0 208 119.488 230.624 167.904-22.656 48.064-93.056 168.096-230.624 168.096-138.144 0-208-119.488-230.624-167.904 22.688-48.064 93.056-168.096 230.624-168.096z m0 56c-57.824 0-104.736 50.144-104.736 112s46.912 112 104.736 112c57.824 0 104.736-50.144 104.736-112S569.824 400 512 400z m0 56c28.928 0 52.352 25.056 52.352 56s-23.424 56-52.352 56c-28.928 0-52.352-25.056-52.352-56s23.424-56 52.352-56z" p-id="5016"></path></svg>