<svg t="1632451257264" class="icon" viewBox="0 0 1024 1024" version="1.1" xmlns="http://www.w3.org/2000/svg" p-id="2740" width="200" height="200"><path d="M192.032 469.152h64v381.248h-64zM384.032 274.4h64v576h-64zM576.064 514.496h64v335.936h-64zM768.096 347.552h64v502.848h-64zM751.552 198.4a32 32 0 0 0 32-32V32a32 32 0 0 0-64 0v134.4a32 32 0 0 0 32 32zM272.448 198.4a32 32 0 0 0 32-32V32a32 32 0 0 0-64 0v134.4a32 32 0 0 0 32 32z" fill="#2c2c2c" p-id="2741"></path><path d="M984.96 66.912h-137.408v64H960V960H64V130.912h112.448v-64H39.04A39.104 39.104 0 0 0 0 105.952V984.96A39.104 39.104 0 0 0 39.04 1024h945.92A39.104 39.104 0 0 0 1024 984.96V105.984a39.104 39.104 0 0 0-39.04-39.04z" fill="#2c2c2c" p-id="2742"></path><path d="M368.448 66.912h287.104v64h-287.104z" fill="#2c2c2c" p-id="2743"></path></svg>