<?xml version="1.0" standalone="no"?><!DOCTYPE svg PUBLIC "-//W3C//DTD SVG 1.1//EN" "http://www.w3.org/Graphics/SVG/1.1/DTD/svg11.dtd"><svg t="1632465438526" class="icon" viewBox="0 0 1024 1024" version="1.1" xmlns="http://www.w3.org/2000/svg" p-id="2601" xmlns:xlink="http://www.w3.org/1999/xlink" width="32" height="32"><defs><style type="text/css"></style></defs><path d="M538.026667 758.186667l34.56-43.093334c-22.613333-27.306667-36.266667-62.293333-36.266667-99.84 0-86.186667 70.4-156.586667 157.013333-156.586666 46.506667 0 88.746667 20.48 117.333334 52.48V135.253333c0-28.16-23.04-51.2-51.2-51.2H204.8c-28.16 0-51.2 23.04-51.2 51.2v665.6c0 28.16 23.04 51.2 51.2 51.2h246.186667c10.666667-44.8 43.946667-80.64 87.04-93.866666zM337.493333 204.8h290.133334c18.773333 0 34.133333 15.36 34.133333 34.133333s-15.36 34.133333-34.133333 34.133334h-290.133334c-18.773333 0-34.133333-15.36-34.133333-34.133334s14.933333-34.133333 34.133333-34.133333z m0 153.6h290.133334c18.773333 0 34.133333 15.36 34.133333 34.133333s-15.36 34.133333-34.133333 34.133334h-290.133334c-18.773333 0-34.133333-15.36-34.133333-34.133334s14.933333-34.133333 34.133333-34.133333z m-34.133333 187.733333c0-18.773333 15.36-34.133333 34.133333-34.133333h119.466667c18.773333 0 34.133333 15.36 34.133333 34.133333s-15.36 34.133333-34.133333 34.133334h-119.466667c-19.2 0-34.133333-15.36-34.133333-34.133334z" fill="#4C4C4C" p-id="2602"></path><path d="M811.093333 938.666667h-235.946666c-32.426667 0-58.88-26.453333-58.88-58.88s26.453333-58.88 58.88-58.88l96.853333-120.32c-38.826667-9.386667-67.413333-43.946667-67.413333-85.333334 0-48.64 39.68-88.32 88.746666-88.32s88.746667 39.68 88.746667 88.32c0 41.386667-28.586667 75.946667-67.413333 85.333334l96.853333 120.32c32.426667 0 58.88 26.453333 58.88 58.88 0 32.426667-26.453333 58.88-59.306667 58.88z" fill="#4C4C4C" p-id="2603"></path></svg>