<?xml version="1.0" standalone="no"?><!DOCTYPE svg PUBLIC "-//W3C//DTD SVG 1.1//EN" "http://www.w3.org/Graphics/SVG/1.1/DTD/svg11.dtd"><svg t="1632464768839" class="icon" viewBox="0 0 1024 1024" version="1.1" xmlns="http://www.w3.org/2000/svg" p-id="917" xmlns:xlink="http://www.w3.org/1999/xlink" width="32" height="32"><defs><style type="text/css"></style></defs><path d="M844.27 762.92L668.51 441.35V190.08h69.58c16.57 0 30-13.43 30-30s-13.43-30-30-30h-92.76a30.11 30.11 0 0 0-6.83-0.79H384.1c-2.35 0-4.63 0.28-6.83 0.79H286.1c-16.57 0-30 13.43-30 30s13.43 30 30 30h68.02v251.4L181.43 763.56c-15.19 28.34-14.41 61.73 2.11 89.32 16.51 27.59 45.57 44.06 77.73 44.06H764.8c32.31 0 61.43-16.59 77.91-44.38s17.06-61.29 1.56-89.64z m-53.18 59.04c-2.67 4.5-10.58 14.98-26.3 14.98H261.26c-15.65 0-23.56-10.4-26.24-14.88s-8.11-16.37-0.71-30.16l176.25-328.72c2.34-4.36 3.56-9.23 3.56-14.18V190.08h194.4v258.93c0 5.03 1.26 9.98 3.68 14.39l179.44 328.29c7.53 13.8 2.13 25.77-0.55 30.27z" p-id="918"></path><path d="M590.26 720.12m-60 0a60 60 0 1 0 120 0 60 60 0 1 0-120 0Z" p-id="919"></path><path d="M416.08 639.96m-30 0a30 30 0 1 0 60 0 30 30 0 1 0-60 0Z" p-id="920"></path></svg>