<?xml version="1.0" standalone="no"?><!DOCTYPE svg PUBLIC "-//W3C//DTD SVG 1.1//EN" "http://www.w3.org/Graphics/SVG/1.1/DTD/svg11.dtd"><svg t="1634201017305" class="icon" viewBox="0 0 1024 1024" version="1.1" xmlns="http://www.w3.org/2000/svg" p-id="563" width="32" height="32" xmlns:xlink="http://www.w3.org/1999/xlink"><defs><style type="text/css"></style></defs><path d="M800 96h-64c-17.7 0-32 14.3-32 32s14.3 32 32 32h64c17.7 0 32 14.3 32 32v672c0 17.7-14.3 32-32 32H224c-17.7 0-32-14.3-32-32V192c0-17.7 14.3-32 32-32h64c17.7 0 32-14.3 32-32s-14.3-32-32-32h-64c-53 0-96 43-96 96v672c0 53 43 96 96 96h576c53 0 96-43 96-96V192c0-53-43-96-96-96z" p-id="564"></path><path d="M384.1 192H640c17.7 0 32-14.3 32-32V96c0-17.7-14.3-32-32-32H384.1c-17.7 0-32 14.3-32 32v64c0 17.7 14.3 32 32 32zM352 737c17.7 0 32-14.3 32-32V512c0-17.7-14.3-32-32-32s-32 14.3-32 32v193c0 17.7 14.3 32 32 32zM480 448v257c0 17.7 14.3 32 32 32s32-14.3 32-32V448c0-17.7-14.3-32-32-32s-32 14.3-32 32zM640 320v385c0 17.7 14.3 32 32 32s32-14.3 32-32V320c0-17.7-14.3-32-32-32s-32 14.3-32 32z" p-id="565"></path></svg>