<svg t="1632451338413" class="icon" viewBox="0 0 1024 1024" version="1.1" xmlns="http://www.w3.org/2000/svg" p-id="3111" width="200" height="200"><path d="M454.816 539.744a32 32 0 1 0 39.2 50.592 637.12 637.12 0 0 0 239.2-467.36l53.888 53.856a32 32 0 0 0 45.248-45.248L725.76 25.056a32 32 0 0 0-45.216 0c-0.512 0.48-0.672 1.152-1.12 1.664l-105.28 105.312a32 32 0 1 0 45.216 45.248l49.152-49.12a572.416 572.416 0 0 1-213.76 411.584zM800 944.32H64v-448h32v-64H0v576h864v-96h-64v32z" fill="#2c2c2c" p-id="3112"></path><path d="M867.872 272.32a790.464 790.464 0 0 1-13.248 64H960v448H224v-448h237.536a558.112 558.112 0 0 0 18.56-64H160v576h864v-576z" fill="#2c2c2c" p-id="3113"></path></svg>