<?xml version="1.0" standalone="no"?><!DOCTYPE svg PUBLIC "-//W3C//DTD SVG 1.1//EN" "http://www.w3.org/Graphics/SVG/1.1/DTD/svg11.dtd"><svg t="1644284645327" class="icon" viewBox="0 0 1024 1024" version="1.1" xmlns="http://www.w3.org/2000/svg" p-id="1422" width="32" height="32" xmlns:xlink="http://www.w3.org/1999/xlink"><defs><style type="text/css"></style></defs><path d="M1001.76 505.76l-45.12-65.12a128 128 0 0 0-26.24-27.04V150.24A148 148 0 0 0 781.92 2.24H384A148.32 148.32 0 0 0 236.48 144h-15.04a129.6 129.6 0 0 0-128 130.4v244.8a148 148 0 0 0-85.28 134.56v220a148.32 148.32 0 0 0 148 148h711.68a148.32 148.32 0 0 0 148-148v-323.2a75.68 75.68 0 0 0-14.08-44.8zM384 61.44h397.92a89.12 89.12 0 0 1 88.8 88.8v238.24a125.6 125.6 0 0 0-17.28-1.28h-172.8a125.76 125.76 0 0 0-103.04 53.44l-45.12 65.12H294.88V150.24A88.8 88.8 0 0 1 384 61.44zM153.28 274.72a69.76 69.76 0 0 1 68.48-71.04h14.4v302.08H153.28z m803.36 599.04a89.12 89.12 0 0 1-88.8 88.8H156.16a89.12 89.12 0 0 1-88.8-88.8V653.76a89.12 89.12 0 0 1 88.8-88.8h407.2l63.2-90.24a65.92 65.92 0 0 1 54.08-28.32h172.8a65.76 65.76 0 0 1 54.08 28.32l45.76 65.12a18.56 18.56 0 0 1 3.36 10.72z" fill="#333333" p-id="1423"></path><path d="M423.52 215.52H720a29.76 29.76 0 0 0 0-59.36H423.52a29.76 29.76 0 0 0 0 59.36z m0 130.24h177.76a29.6 29.6 0 0 0 0-59.2H423.52a29.6 29.6 0 0 0 0 59.2z" fill="#0066FF" p-id="1424"></path></svg>