<svg t="1632451302730" class="icon" viewBox="0 0 1024 1024" version="1.1" xmlns="http://www.w3.org/2000/svg" p-id="2923" width="200" height="200"><path d="M952.465603 175.789414L524.859535 2.541019a34.336368 34.336368 0 0 0-25.768261 0L71.485206 175.789414a34.304397 34.304397 0 0 0-21.420267 31.778724v91.883352a784.653138 784.653138 0 0 0 340.198592 646.668257l102.305751 70.271263a34.272427 34.272427 0 0 0 38.844215 0l102.305751-70.335204a784.621168 784.621168 0 0 0 340.166621-646.604316V207.568138a34.304397 34.304397 0 0 0-21.420266-31.778724z m-42.520828 123.694047a720.648103 720.648103 0 0 1-312.384216 593.852913l-66.179033 45.462118a34.304397 34.304397 0 0 1-38.844215 0l-66.08312-45.430148A720.616132 720.616132 0 0 1 114.006033 299.483461V250.696406a34.304397 34.304397 0 0 1 21.420267-31.810694l363.664974-147.288311a34.336368 34.336368 0 0 1 25.768261 0l363.664973 147.288311a34.304397 34.304397 0 0 1 21.420267 31.810694z" fill="#2c2c2c" p-id="2924"></path><path d="M715.435966 354.217038l-248.666915 248.698886-158.254209-158.254209a31.970547 31.970547 0 1 0-45.206353 45.206354l180.857385 180.857385a31.970547 31.970547 0 0 0 45.206353 0l271.270093-271.302063a31.970547 31.970547 0 1 0-45.206354-45.206353z" fill="#2c2c2c" p-id="2925"></path></svg>