<?xml version="1.0" standalone="no"?><!DOCTYPE svg PUBLIC "-//W3C//DTD SVG 1.1//EN" "http://www.w3.org/Graphics/SVG/1.1/DTD/svg11.dtd"><svg t="1632465520743" class="icon" viewBox="0 0 1024 1024" version="1.1" xmlns="http://www.w3.org/2000/svg" p-id="2737" xmlns:xlink="http://www.w3.org/1999/xlink" width="32" height="32"><defs><style type="text/css"></style></defs><path d="M896 160a32 32 0 0 1 32 32v640a32 32 0 0 1-32 32H128a32 32 0 0 1-32-32V192a32 32 0 0 1 32-32h768z m0 32H128v640h768V192z m-98.144 342.528a16 16 0 0 1 2.4 20.352l-1.792 2.24-164.64 173.376a16 16 0 0 1-20.48 2.304l-2.304-1.856-89.408-87.104a16 16 0 0 1 20.096-24.736l2.24 1.824 77.792 75.776 153.472-161.6a16 16 0 0 1 22.624-0.576zM352 288a128 128 0 0 1 97.6 210.784v171.36a32 32 0 0 1-46.848 28.352l-3.456-2.112-47.136-32.8-44.352 31.904a32 32 0 0 1-50.464-22.24l-0.224-3.712-0.064-167.68A128 128 0 0 1 352 288z m65.6 237.92c-19.2 11.488-41.6 18.08-65.6 18.08a127.424 127.424 0 0 1-62.912-16.512v142.048l44.384-31.936a32 32 0 0 1 33.12-2.56l3.84 2.272 47.168 32.832v-144.224zM352 320a96 96 0 1 0 0 192 96 96 0 0 0 0-192z m432.736 96a16 16 0 0 1 2.88 31.744l-2.88 0.256h-256a16 16 0 0 1-2.88-31.744l2.88-0.256h256z m0-96a16 16 0 0 1 2.88 31.744l-2.88 0.256h-256a16 16 0 0 1-2.88-31.744l2.88-0.256h256z" p-id="2738"></path></svg>